<mxfile host="app.diagrams.net" agent="Mozilla/5.0 (Windows NT 10.0; Win64; x64) AppleWebKit/537.36 (KHTML, like Gecko) Chrome/128.0.0.0 Safari/537.36" version="24.7.14">
  <diagram name="Page-1" id="adBVYjsBgINW1mOEp0g1">
    <mxGraphModel dx="968" dy="119" grid="1" gridSize="10" guides="1" tooltips="1" connect="1" arrows="1" fold="1" page="1" pageScale="1" pageWidth="850" pageHeight="1100" math="0" shadow="0">
      <root>
        <mxCell id="0" />
        <mxCell id="1" parent="0" />
        <mxCell id="3FhxvL2QmQsuRNpawMvN-1" value="Horizontal&amp;nbsp;&lt;div&gt;Container&lt;/div&gt;" style="rounded=0;whiteSpace=wrap;html=1;sketch=1;hachureGap=4;jiggle=2;curveFitting=1;fontFamily=Architects Daughter;fontSource=https%3A%2F%2Ffonts.googleapis.com%2Fcss%3Ffamily%3DArchitects%2BDaughter;fillColor=none;strokeColor=#007FFF;" parent="1" vertex="1">
          <mxGeometry x="50" y="70" width="120" height="60" as="geometry" />
        </mxCell>
        <mxCell id="3FhxvL2QmQsuRNpawMvN-2" value="Object" style="rounded=0;whiteSpace=wrap;html=1;sketch=1;hachureGap=4;jiggle=2;curveFitting=1;fontFamily=Architects Daughter;fontSource=https%3A%2F%2Ffonts.googleapis.com%2Fcss%3Ffamily%3DArchitects%2BDaughter;strokeColor=#666666;" parent="1" vertex="1">
          <mxGeometry x="370" y="70" width="120" height="60" as="geometry" />
        </mxCell>
        <mxCell id="3FhxvL2QmQsuRNpawMvN-3" value="Vertical&amp;nbsp;&lt;div&gt;Container&lt;/div&gt;" style="rounded=0;whiteSpace=wrap;html=1;sketch=1;hachureGap=4;jiggle=2;curveFitting=1;fontFamily=Architects Daughter;fontSource=https%3A%2F%2Ffonts.googleapis.com%2Fcss%3Ffamily%3DArchitects%2BDaughter;strokeColor=#FF8000;" parent="1" vertex="1">
          <mxGeometry x="212" y="70" width="120" height="60" as="geometry" />
        </mxCell>
        <mxCell id="TELd0dwmG0P1b-_5CyFj-1" value="" style="rounded=0;whiteSpace=wrap;html=1;sketch=1;hachureGap=4;jiggle=2;curveFitting=1;fontFamily=Architects Daughter;fontSource=https%3A%2F%2Ffonts.googleapis.com%2Fcss%3Ffamily%3DArchitects%2BDaughter;fillColor=none;strokeColor=#007FFF;" vertex="1" parent="1">
          <mxGeometry x="-60" y="190" width="700" height="390" as="geometry" />
        </mxCell>
        <mxCell id="TELd0dwmG0P1b-_5CyFj-2" value="&lt;span style=&quot;font-size: 17px;&quot;&gt;Whole Dashboard&lt;/span&gt;" style="text;html=1;align=center;verticalAlign=middle;whiteSpace=wrap;rounded=0;fontSize=17;fontFamily=Architects Daughter;fontSource=https%3A%2F%2Ffonts.googleapis.com%2Fcss%3Ffamily%3DArchitects%2BDaughter;" vertex="1" parent="1">
          <mxGeometry x="-50" y="160" width="140" height="30" as="geometry" />
        </mxCell>
        <mxCell id="TELd0dwmG0P1b-_5CyFj-3" value="" style="rounded=0;whiteSpace=wrap;html=1;sketch=1;hachureGap=4;jiggle=2;curveFitting=1;fontFamily=Architects Daughter;fontSource=https%3A%2F%2Ffonts.googleapis.com%2Fcss%3Ffamily%3DArchitects%2BDaughter;strokeColor=#FF8000;" vertex="1" parent="1">
          <mxGeometry x="-50" y="200" width="120" height="370" as="geometry" />
        </mxCell>
        <mxCell id="TELd0dwmG0P1b-_5CyFj-4" value="Navigation" style="text;html=1;align=center;verticalAlign=middle;whiteSpace=wrap;rounded=0;fontSize=14;fontFamily=Architects Daughter;fontSource=https%3A%2F%2Ffonts.googleapis.com%2Fcss%3Ffamily%3DArchitects%2BDaughter;" vertex="1" parent="1">
          <mxGeometry x="-30" y="180" width="60" height="30" as="geometry" />
        </mxCell>
        <mxCell id="TELd0dwmG0P1b-_5CyFj-6" value="Logo" style="rounded=0;whiteSpace=wrap;html=1;sketch=1;hachureGap=4;jiggle=2;curveFitting=1;fontFamily=Architects Daughter;fontSource=https%3A%2F%2Ffonts.googleapis.com%2Fcss%3Ffamily%3DArchitects%2BDaughter;strokeColor=#314354;fillColor=#647687;fontColor=#000000;" vertex="1" parent="1">
          <mxGeometry x="-40" y="220" width="100" height="30" as="geometry" />
        </mxCell>
        <mxCell id="TELd0dwmG0P1b-_5CyFj-7" value="Icon" style="rounded=0;whiteSpace=wrap;html=1;sketch=1;hachureGap=4;jiggle=2;curveFitting=1;fontFamily=Architects Daughter;fontSource=https%3A%2F%2Ffonts.googleapis.com%2Fcss%3Ffamily%3DArchitects%2BDaughter;strokeColor=#666666;" vertex="1" parent="1">
          <mxGeometry x="-30" y="290" width="80" height="30" as="geometry" />
        </mxCell>
        <mxCell id="TELd0dwmG0P1b-_5CyFj-8" value="Icon" style="rounded=0;whiteSpace=wrap;html=1;sketch=1;hachureGap=4;jiggle=2;curveFitting=1;fontFamily=Architects Daughter;fontSource=https%3A%2F%2Ffonts.googleapis.com%2Fcss%3Ffamily%3DArchitects%2BDaughter;strokeColor=#666666;" vertex="1" parent="1">
          <mxGeometry x="-30" y="340" width="80" height="30" as="geometry" />
        </mxCell>
        <mxCell id="TELd0dwmG0P1b-_5CyFj-9" value="Icon" style="rounded=0;whiteSpace=wrap;html=1;sketch=1;hachureGap=4;jiggle=2;curveFitting=1;fontFamily=Architects Daughter;fontSource=https%3A%2F%2Ffonts.googleapis.com%2Fcss%3Ffamily%3DArchitects%2BDaughter;strokeColor=#666666;" vertex="1" parent="1">
          <mxGeometry x="-30" y="520" width="80" height="30" as="geometry" />
        </mxCell>
        <mxCell id="TELd0dwmG0P1b-_5CyFj-11" value="Icon" style="rounded=0;whiteSpace=wrap;html=1;sketch=1;hachureGap=4;jiggle=2;curveFitting=1;fontFamily=Architects Daughter;fontSource=https%3A%2F%2Ffonts.googleapis.com%2Fcss%3Ffamily%3DArchitects%2BDaughter;strokeColor=#666666;" vertex="1" parent="1">
          <mxGeometry x="-30" y="410" width="80" height="30" as="geometry" />
        </mxCell>
        <mxCell id="TELd0dwmG0P1b-_5CyFj-12" value="Icon" style="rounded=0;whiteSpace=wrap;html=1;sketch=1;hachureGap=4;jiggle=2;curveFitting=1;fontFamily=Architects Daughter;fontSource=https%3A%2F%2Ffonts.googleapis.com%2Fcss%3Ffamily%3DArchitects%2BDaughter;strokeColor=#666666;" vertex="1" parent="1">
          <mxGeometry x="-30" y="460" width="80" height="30" as="geometry" />
        </mxCell>
        <mxCell id="TELd0dwmG0P1b-_5CyFj-14" value="" style="rounded=0;whiteSpace=wrap;html=1;sketch=1;hachureGap=4;jiggle=2;curveFitting=1;fontFamily=Architects Daughter;fontSource=https%3A%2F%2Ffonts.googleapis.com%2Fcss%3Ffamily%3DArchitects%2BDaughter;strokeColor=#FF8000;" vertex="1" parent="1">
          <mxGeometry x="80" y="200" width="550" height="370" as="geometry" />
        </mxCell>
        <mxCell id="TELd0dwmG0P1b-_5CyFj-16" value="Header and Charts" style="text;html=1;align=center;verticalAlign=middle;whiteSpace=wrap;rounded=0;fontSize=14;fontFamily=Architects Daughter;fontSource=https%3A%2F%2Ffonts.googleapis.com%2Fcss%3Ffamily%3DArchitects%2BDaughter;" vertex="1" parent="1">
          <mxGeometry x="100" y="180" width="180" height="30" as="geometry" />
        </mxCell>
        <mxCell id="TELd0dwmG0P1b-_5CyFj-17" value="" style="rounded=0;whiteSpace=wrap;html=1;sketch=1;hachureGap=4;jiggle=2;curveFitting=1;fontFamily=Architects Daughter;fontSource=https%3A%2F%2Ffonts.googleapis.com%2Fcss%3Ffamily%3DArchitects%2BDaughter;fillColor=none;strokeColor=#007FFF;" vertex="1" parent="1">
          <mxGeometry x="92" y="205" width="528" height="35" as="geometry" />
        </mxCell>
        <mxCell id="TELd0dwmG0P1b-_5CyFj-18" value="Title/Header" style="rounded=0;whiteSpace=wrap;html=1;sketch=1;hachureGap=4;jiggle=2;curveFitting=1;fontFamily=Architects Daughter;fontSource=https%3A%2F%2Ffonts.googleapis.com%2Fcss%3Ffamily%3DArchitects%2BDaughter;strokeColor=#666666;" vertex="1" parent="1">
          <mxGeometry x="100" y="212.5" width="110" height="20" as="geometry" />
        </mxCell>
        <mxCell id="TELd0dwmG0P1b-_5CyFj-19" value="Icons/Filter" style="rounded=0;whiteSpace=wrap;html=1;sketch=1;hachureGap=4;jiggle=2;curveFitting=1;fontFamily=Architects Daughter;fontSource=https%3A%2F%2Ffonts.googleapis.com%2Fcss%3Ffamily%3DArchitects%2BDaughter;strokeColor=#666666;" vertex="1" parent="1">
          <mxGeometry x="510" y="212.5" width="110" height="20" as="geometry" />
        </mxCell>
        <mxCell id="TELd0dwmG0P1b-_5CyFj-20" value="" style="rounded=0;whiteSpace=wrap;html=1;sketch=1;hachureGap=4;jiggle=2;curveFitting=1;fontFamily=Architects Daughter;fontSource=https%3A%2F%2Ffonts.googleapis.com%2Fcss%3Ffamily%3DArchitects%2BDaughter;fillColor=none;strokeColor=#007FFF;" vertex="1" parent="1">
          <mxGeometry x="90" y="250" width="530" height="310" as="geometry" />
        </mxCell>
        <mxCell id="TELd0dwmG0P1b-_5CyFj-21" value="" style="rounded=0;whiteSpace=wrap;html=1;sketch=1;hachureGap=4;jiggle=2;curveFitting=1;fontFamily=Architects Daughter;fontSource=https%3A%2F%2Ffonts.googleapis.com%2Fcss%3Ffamily%3DArchitects%2BDaughter;strokeColor=#FF8000;" vertex="1" parent="1">
          <mxGeometry x="97" y="255" width="155" height="300" as="geometry" />
        </mxCell>
        <mxCell id="TELd0dwmG0P1b-_5CyFj-22" value="" style="rounded=0;whiteSpace=wrap;html=1;sketch=1;hachureGap=4;jiggle=2;curveFitting=1;fontFamily=Architects Daughter;fontSource=https%3A%2F%2Ffonts.googleapis.com%2Fcss%3Ffamily%3DArchitects%2BDaughter;strokeColor=#FF8000;" vertex="1" parent="1">
          <mxGeometry x="260" y="255" width="350" height="300" as="geometry" />
        </mxCell>
        <mxCell id="TELd0dwmG0P1b-_5CyFj-23" value="Overview" style="text;html=1;align=center;verticalAlign=middle;whiteSpace=wrap;rounded=0;fontSize=14;fontFamily=Architects Daughter;fontSource=https%3A%2F%2Ffonts.googleapis.com%2Fcss%3Ffamily%3DArchitects%2BDaughter;" vertex="1" parent="1">
          <mxGeometry x="80" y="260" width="180" height="30" as="geometry" />
        </mxCell>
        <mxCell id="TELd0dwmG0P1b-_5CyFj-25" value="Chart" style="rounded=0;whiteSpace=wrap;html=1;sketch=1;hachureGap=4;jiggle=2;curveFitting=1;fontFamily=Architects Daughter;fontSource=https%3A%2F%2Ffonts.googleapis.com%2Fcss%3Ffamily%3DArchitects%2BDaughter;strokeColor=#666666;" vertex="1" parent="1">
          <mxGeometry x="110" y="360" width="130" height="50" as="geometry" />
        </mxCell>
        <mxCell id="TELd0dwmG0P1b-_5CyFj-26" value="Chart" style="rounded=0;whiteSpace=wrap;html=1;sketch=1;hachureGap=4;jiggle=2;curveFitting=1;fontFamily=Architects Daughter;fontSource=https%3A%2F%2Ffonts.googleapis.com%2Fcss%3Ffamily%3DArchitects%2BDaughter;strokeColor=#666666;" vertex="1" parent="1">
          <mxGeometry x="110" y="300" width="130" height="50" as="geometry" />
        </mxCell>
        <mxCell id="TELd0dwmG0P1b-_5CyFj-28" value="Chart" style="rounded=0;whiteSpace=wrap;html=1;sketch=1;hachureGap=4;jiggle=2;curveFitting=1;fontFamily=Architects Daughter;fontSource=https%3A%2F%2Ffonts.googleapis.com%2Fcss%3Ffamily%3DArchitects%2BDaughter;strokeColor=#666666;" vertex="1" parent="1">
          <mxGeometry x="110" y="420" width="130" height="50" as="geometry" />
        </mxCell>
        <mxCell id="TELd0dwmG0P1b-_5CyFj-29" value="Chart" style="rounded=0;whiteSpace=wrap;html=1;sketch=1;hachureGap=4;jiggle=2;curveFitting=1;fontFamily=Architects Daughter;fontSource=https%3A%2F%2Ffonts.googleapis.com%2Fcss%3Ffamily%3DArchitects%2BDaughter;strokeColor=#666666;" vertex="1" parent="1">
          <mxGeometry x="110" y="480" width="130" height="50" as="geometry" />
        </mxCell>
        <mxCell id="TELd0dwmG0P1b-_5CyFj-30" value="" style="rounded=0;whiteSpace=wrap;html=1;sketch=1;hachureGap=4;jiggle=2;curveFitting=1;fontFamily=Architects Daughter;fontSource=https%3A%2F%2Ffonts.googleapis.com%2Fcss%3Ffamily%3DArchitects%2BDaughter;strokeColor=#FF8000;" vertex="1" parent="1">
          <mxGeometry x="271" y="266" width="332" height="134" as="geometry" />
        </mxCell>
        <mxCell id="TELd0dwmG0P1b-_5CyFj-51" style="edgeStyle=none;curved=1;rounded=0;sketch=1;hachureGap=4;jiggle=2;curveFitting=1;orthogonalLoop=1;jettySize=auto;html=1;exitX=0.509;exitY=0.974;exitDx=0;exitDy=0;fontFamily=Architects Daughter;fontSource=https%3A%2F%2Ffonts.googleapis.com%2Fcss%3Ffamily%3DArchitects%2BDaughter;fontSize=12;startSize=8;endSize=8;exitPerimeter=0;" edge="1" parent="1">
          <mxGeometry relative="1" as="geometry">
            <mxPoint x="312.65" y="682.08" as="targetPoint" />
            <mxPoint x="369.9999999999999" y="500.00000000000006" as="sourcePoint" />
          </mxGeometry>
        </mxCell>
        <mxCell id="TELd0dwmG0P1b-_5CyFj-57" style="edgeStyle=none;curved=1;rounded=0;sketch=1;hachureGap=4;jiggle=2;curveFitting=1;orthogonalLoop=1;jettySize=auto;html=1;exitX=0.25;exitY=1;exitDx=0;exitDy=0;fontFamily=Architects Daughter;fontSource=https%3A%2F%2Ffonts.googleapis.com%2Fcss%3Ffamily%3DArchitects%2BDaughter;fontSize=12;startSize=8;endSize=8;" edge="1" parent="1" source="TELd0dwmG0P1b-_5CyFj-39" target="TELd0dwmG0P1b-_5CyFj-49">
          <mxGeometry relative="1" as="geometry" />
        </mxCell>
        <mxCell id="TELd0dwmG0P1b-_5CyFj-58" style="edgeStyle=none;curved=1;rounded=0;sketch=1;hachureGap=4;jiggle=2;curveFitting=1;orthogonalLoop=1;jettySize=auto;html=1;exitX=0.25;exitY=1;exitDx=0;exitDy=0;fontFamily=Architects Daughter;fontSource=https%3A%2F%2Ffonts.googleapis.com%2Fcss%3Ffamily%3DArchitects%2BDaughter;fontSize=12;startSize=8;endSize=8;" edge="1" parent="1" source="TELd0dwmG0P1b-_5CyFj-39" target="TELd0dwmG0P1b-_5CyFj-49">
          <mxGeometry relative="1" as="geometry" />
        </mxCell>
        <mxCell id="TELd0dwmG0P1b-_5CyFj-39" value="" style="rounded=0;whiteSpace=wrap;html=1;sketch=1;hachureGap=4;jiggle=2;curveFitting=1;fontFamily=Architects Daughter;fontSource=https%3A%2F%2Ffonts.googleapis.com%2Fcss%3Ffamily%3DArchitects%2BDaughter;strokeColor=#FF8000;" vertex="1" parent="1">
          <mxGeometry x="271" y="409" width="332" height="134" as="geometry" />
        </mxCell>
        <mxCell id="TELd0dwmG0P1b-_5CyFj-40" value="Title (Income)" style="rounded=0;whiteSpace=wrap;html=1;sketch=1;hachureGap=4;jiggle=2;curveFitting=1;fontFamily=Architects Daughter;fontSource=https%3A%2F%2Ffonts.googleapis.com%2Fcss%3Ffamily%3DArchitects%2BDaughter;fillColor=none;strokeColor=#007FFF;labelPosition=center;verticalLabelPosition=middle;align=left;verticalAlign=middle;spacingLeft=10;" vertex="1" parent="1">
          <mxGeometry x="271" y="414" width="328" height="25" as="geometry" />
        </mxCell>
        <mxCell id="TELd0dwmG0P1b-_5CyFj-42" value="Title (Demographics)" style="rounded=0;whiteSpace=wrap;html=1;sketch=1;hachureGap=4;jiggle=2;curveFitting=1;fontFamily=Architects Daughter;fontSource=https%3A%2F%2Ffonts.googleapis.com%2Fcss%3Ffamily%3DArchitects%2BDaughter;fillColor=none;strokeColor=#007FFF;labelPosition=center;verticalLabelPosition=middle;align=left;verticalAlign=middle;spacingLeft=10;" vertex="1" parent="1">
          <mxGeometry x="270" y="270.5" width="328" height="25" as="geometry" />
        </mxCell>
        <mxCell id="TELd0dwmG0P1b-_5CyFj-44" value="" style="rounded=0;whiteSpace=wrap;html=1;sketch=1;hachureGap=4;jiggle=2;curveFitting=1;fontFamily=Architects Daughter;fontSource=https%3A%2F%2Ffonts.googleapis.com%2Fcss%3Ffamily%3DArchitects%2BDaughter;fillColor=none;strokeColor=#007FFF;labelPosition=center;verticalLabelPosition=middle;align=left;verticalAlign=middle;spacingLeft=10;" vertex="1" parent="1">
          <mxGeometry x="273" y="300" width="328" height="94" as="geometry" />
        </mxCell>
        <mxCell id="TELd0dwmG0P1b-_5CyFj-45" value="" style="rounded=0;whiteSpace=wrap;html=1;sketch=1;hachureGap=4;jiggle=2;curveFitting=1;fontFamily=Architects Daughter;fontSource=https%3A%2F%2Ffonts.googleapis.com%2Fcss%3Ffamily%3DArchitects%2BDaughter;fillColor=none;strokeColor=#007FFF;labelPosition=center;verticalLabelPosition=middle;align=left;verticalAlign=middle;spacingLeft=10;" vertex="1" parent="1">
          <mxGeometry x="273" y="444" width="328" height="91" as="geometry" />
        </mxCell>
        <mxCell id="TELd0dwmG0P1b-_5CyFj-46" value="Chart" style="rounded=0;whiteSpace=wrap;html=1;sketch=1;hachureGap=4;jiggle=2;curveFitting=1;fontFamily=Architects Daughter;fontSource=https%3A%2F%2Ffonts.googleapis.com%2Fcss%3Ffamily%3DArchitects%2BDaughter;strokeColor=#666666;" vertex="1" parent="1">
          <mxGeometry x="280" y="310" width="90" height="70" as="geometry" />
        </mxCell>
        <mxCell id="TELd0dwmG0P1b-_5CyFj-47" value="Chart" style="rounded=0;whiteSpace=wrap;html=1;sketch=1;hachureGap=4;jiggle=2;curveFitting=1;fontFamily=Architects Daughter;fontSource=https%3A%2F%2Ffonts.googleapis.com%2Fcss%3Ffamily%3DArchitects%2BDaughter;strokeColor=#666666;" vertex="1" parent="1">
          <mxGeometry x="390" y="310" width="90" height="70" as="geometry" />
        </mxCell>
        <mxCell id="TELd0dwmG0P1b-_5CyFj-48" value="Chart" style="rounded=0;whiteSpace=wrap;html=1;sketch=1;hachureGap=4;jiggle=2;curveFitting=1;fontFamily=Architects Daughter;fontSource=https%3A%2F%2Ffonts.googleapis.com%2Fcss%3Ffamily%3DArchitects%2BDaughter;strokeColor=#666666;" vertex="1" parent="1">
          <mxGeometry x="500" y="310" width="90" height="70" as="geometry" />
        </mxCell>
        <mxCell id="TELd0dwmG0P1b-_5CyFj-49" value="Chart" style="rounded=0;whiteSpace=wrap;html=1;sketch=1;hachureGap=4;jiggle=2;curveFitting=1;fontFamily=Architects Daughter;fontSource=https%3A%2F%2Ffonts.googleapis.com%2Fcss%3Ffamily%3DArchitects%2BDaughter;strokeColor=#666666;" vertex="1" parent="1">
          <mxGeometry x="281" y="450" width="150" height="80" as="geometry" />
        </mxCell>
        <mxCell id="TELd0dwmG0P1b-_5CyFj-50" value="Chart" style="rounded=0;whiteSpace=wrap;html=1;sketch=1;hachureGap=4;jiggle=2;curveFitting=1;fontFamily=Architects Daughter;fontSource=https%3A%2F%2Ffonts.googleapis.com%2Fcss%3Ffamily%3DArchitects%2BDaughter;strokeColor=#666666;" vertex="1" parent="1">
          <mxGeometry x="450" y="450" width="140" height="80" as="geometry" />
        </mxCell>
        <mxCell id="TELd0dwmG0P1b-_5CyFj-53" value="&lt;div&gt;&lt;br&gt;&lt;/div&gt;" style="rounded=0;whiteSpace=wrap;html=1;sketch=1;hachureGap=4;jiggle=2;curveFitting=1;fontFamily=Architects Daughter;fontSource=https%3A%2F%2Ffonts.googleapis.com%2Fcss%3Ffamily%3DArchitects%2BDaughter;strokeColor=#FF8000;" vertex="1" parent="1">
          <mxGeometry x="220" y="730" width="120" height="150" as="geometry" />
        </mxCell>
        <mxCell id="TELd0dwmG0P1b-_5CyFj-54" value="Title" style="rounded=0;whiteSpace=wrap;html=1;sketch=1;hachureGap=4;jiggle=2;curveFitting=1;fontFamily=Architects Daughter;fontSource=https%3A%2F%2Ffonts.googleapis.com%2Fcss%3Ffamily%3DArchitects%2BDaughter;strokeColor=#666666;" vertex="1" parent="1">
          <mxGeometry x="224.5" y="740" width="107.5" height="10" as="geometry" />
        </mxCell>
        <mxCell id="TELd0dwmG0P1b-_5CyFj-55" value="Graph/Chart" style="rounded=0;whiteSpace=wrap;html=1;sketch=1;hachureGap=4;jiggle=2;curveFitting=1;fontFamily=Architects Daughter;fontSource=https%3A%2F%2Ffonts.googleapis.com%2Fcss%3Ffamily%3DArchitects%2BDaughter;strokeColor=#666666;" vertex="1" parent="1">
          <mxGeometry x="224.5" y="758" width="107.5" height="112" as="geometry" />
        </mxCell>
        <mxCell id="TELd0dwmG0P1b-_5CyFj-56" value="Chart" style="text;html=1;align=center;verticalAlign=middle;resizable=0;points=[];autosize=1;strokeColor=none;fillColor=none;fontSize=16;fontFamily=Architects Daughter;fontSource=https%3A%2F%2Ffonts.googleapis.com%2Fcss%3Ffamily%3DArchitects%2BDaughter;" vertex="1" parent="1">
          <mxGeometry x="210" y="700" width="70" height="30" as="geometry" />
        </mxCell>
      </root>
    </mxGraphModel>
  </diagram>
</mxfile>
